<svg width="200" height="200" viewBox="0 0 200 200" fill="none" xmlns="http://www.w3.org/2000/svg">
<path d="M143.803 156.685C115.687 178.644 74.9579 176.689 49.088 150.819C29.9961 131.727 23.929 104.543 30.8866 80.3076M56.5004 43.006C84.5851 21.6888 124.8 23.8454 150.431 49.4758C168.926 67.971 175.198 94.0607 169.246 117.707" stroke="#175DDC" stroke-width="2" stroke-linecap="round"/>
<path d="M41.2315 158.232L42.6458 156.817L42.6458 156.817L41.2315 158.232ZM43.2315 41.2315C43.2315 40.1269 42.3361 39.2315 41.2315 39.2315L23.2315 39.2315C22.127 39.2315 21.2315 40.1269 21.2315 41.2315C21.2315 42.336 22.127 43.2315 23.2315 43.2315L39.2315 43.2315L39.2315 59.2315C39.2315 60.336 40.127 61.2315 41.2315 61.2315C42.3361 61.2315 43.2315 60.336 43.2315 59.2315L43.2315 41.2315ZM151.81 166.58C152.681 165.9 152.835 164.643 152.155 163.773C151.476 162.902 150.219 162.748 149.348 163.428L151.81 166.58ZM158.231 41.2315L159.646 39.8173L159.646 39.8173L158.231 41.2315ZM156.231 158.232C156.231 159.336 157.127 160.232 158.231 160.232L176.231 160.232C177.336 160.232 178.231 159.336 178.231 158.232C178.231 157.127 177.336 156.232 176.231 156.232L160.231 156.232L160.231 140.232C160.231 139.127 159.336 138.232 158.231 138.232C157.127 138.232 156.231 139.127 156.231 140.232L156.231 158.232ZM48.58 32.1691C47.7002 32.8369 47.5283 34.0915 48.1961 34.9713C48.8639 35.8512 50.1185 36.023 50.9984 35.3552L48.58 32.1691ZM42.6458 156.817C11.1181 125.29 11.1181 74.1734 42.6458 42.6457L39.8173 39.8173C6.72756 72.907 6.72756 126.556 39.8173 159.646L42.6458 156.817ZM149.348 163.428C117.675 188.165 71.7895 185.961 42.6458 156.817L39.8173 159.646C70.4072 190.236 118.564 192.546 151.81 166.58L149.348 163.428ZM156.817 42.6458C188.345 74.1734 188.345 125.29 156.817 156.818L159.646 159.646C192.735 126.556 192.735 72.9071 159.646 39.8173L156.817 42.6458ZM50.9984 35.3552C82.6367 11.3408 127.943 13.7721 156.817 42.6458L159.646 39.8173C129.339 9.51065 81.7892 6.96236 48.58 32.1691L50.9984 35.3552Z" fill="#175DDC"/>
<path d="M126.641 79.3C120.736 82.2692 99.5787 94.5585 89.7378 100.332C87.2776 97.0329 81.2502 89.9398 76.822 87.9603C71.2867 85.486 65.7508 85.486 62.0605 87.9603C58.3702 90.4347 59.6003 93.5276 62.0605 96.002C64.5207 98.4763 71.2863 102.188 71.2863 104.044C71.2863 105.899 69.3919 113.58 71.2863 121.364C72.9314 128.124 78.6669 130.437 82.3572 131.88C83.1773 134.767 85.8015 141.035 89.7378 143.015C94.6583 145.489 97.8648 145.37 104.499 143.015C112.864 140.045 113.856 136.691 114.471 135.66L116.8 100.332C120.695 98.0639 130.093 91.7401 133.538 89.2658C136.982 86.7914 137.359 82.5298 135.998 80.6057C134.637 78.6818 132.545 76.3308 126.641 79.3Z" fill="#E8F0FF" stroke="#175DDC" stroke-width="4" stroke-linecap="round" stroke-linejoin="round"/>
<path d="M85.7664 82.0316L73.306 61.1333M96.2552 79.3841L96.919 54.2732M106.316 83.2341L120.246 63.2624" stroke="#175DDC" stroke-width="4" stroke-linecap="round"/>
<path d="M120.163 102.253C122.649 104.228 122.084 106.574 121.877 108.427C122.498 108.427 124.762 110.649 125.756 112.131C126.75 113.613 126.17 116.041 125.756 117.07C126.585 117.688 128.49 119.169 129.485 120.157C130.728 121.392 130.106 125.714 128.242 128.801C126.377 131.888 118.299 134.975 115.813 135.592C113.327 136.21 108.977 135.592 107.113 133.74C105.621 132.258 106.491 129.83 107.113 128.801C106.284 129.007 104.13 128.924 102.141 126.949C100.153 124.973 101.313 122.421 102.141 121.392C101.106 121.186 98.6616 120.404 97.1702 118.922C95.3059 117.07 97.1702 113.983 99.0345 112.131C100.526 110.649 104.213 109.044 105.87 108.427C106.492 106.986 109.945 103.734 111.934 102.253C114.42 100.4 117.056 99.783 120.163 102.253Z" fill="#E8F0FF" stroke="#175DDC" stroke-width="4" stroke-linejoin="round"/>
<path d="M102.265 121.157C105.34 120.738 112.721 118.643 115.181 116.757C117.964 114.624 120.716 110.471 121.331 107.957" stroke="#175DDC" stroke-width="2" stroke-linejoin="round"/>
<path d="M106.665 128.465C109.76 128.237 117.256 126.603 119.828 124.873C122.738 122.916 124.595 119.229 125.365 116.757" stroke="#175DDC" stroke-width="2" stroke-linejoin="round"/>
</svg>
