<svg width="200" height="200" viewBox="0 0 200 200" fill="none" xmlns="http://www.w3.org/2000/svg">
<path d="M162.304 158.78V187.482H35.728V158.573" stroke="#175DDC" stroke-width="4" stroke-linejoin="round"/>
<path d="M35.728 112.011V85.7867H162.304V112.424" stroke="#175DDC" stroke-width="4" stroke-linejoin="round"/>
<path d="M57.4092 54.6071C57.4092 31.6871 76.0962 13 99.0163 13C121.936 13 140.623 31.5839 140.623 54.6071V85.7866H57.4092V54.6071Z" stroke="#175DDC" stroke-width="4" stroke-linejoin="round"/>
<path d="M181.581 160H18.414C17.0729 160 16 158.744 16 157.173V113.827C16 112.256 17.0729 111 18.414 111H181.581C182.922 111 183.995 112.256 183.995 113.827V157.173C184.085 158.744 182.922 160 181.581 160Z" fill="#E8F0FF" stroke="#175DDC" stroke-width="4" stroke-linecap="round" stroke-linejoin="round"/>
<path d="M44.0552 136.479V125.122" stroke="#175DDC" stroke-width="4" stroke-linecap="round" stroke-linejoin="round"/>
<path d="M44.0552 136.479L54.999 132.969" stroke="#175DDC" stroke-width="4" stroke-linecap="round" stroke-linejoin="round"/>
<path d="M44.0552 136.479L50.766 145.771" stroke="#175DDC" stroke-width="4" stroke-linecap="round" stroke-linejoin="round"/>
<path d="M44.0553 136.479L37.4478 145.771" stroke="#175DDC" stroke-width="4" stroke-linecap="round" stroke-linejoin="round"/>
<path d="M44.0554 136.479L33.2148 132.969" stroke="#175DDC" stroke-width="4" stroke-linecap="round" stroke-linejoin="round"/>
<path d="M81.0161 136.479V125.122" stroke="#175DDC" stroke-width="4" stroke-linecap="round" stroke-linejoin="round"/>
<path d="M81.0161 136.479L91.8567 132.969" stroke="#175DDC" stroke-width="4" stroke-linecap="round" stroke-linejoin="round"/>
<path d="M81.0161 136.479L87.7269 145.771" stroke="#175DDC" stroke-width="4" stroke-linecap="round" stroke-linejoin="round"/>
<path d="M81.016 136.479L74.3052 145.771" stroke="#175DDC" stroke-width="4" stroke-linecap="round" stroke-linejoin="round"/>
<path d="M81.0163 136.479L70.1758 132.969" stroke="#175DDC" stroke-width="4" stroke-linecap="round" stroke-linejoin="round"/>
<path d="M107.137 145.771H128.818" stroke="#175DDC" stroke-width="4" stroke-linecap="round" stroke-linejoin="round"/>
<path d="M144.098 145.771H165.779" stroke="#175DDC" stroke-width="4" stroke-linecap="round" stroke-linejoin="round"/>
</svg>
